<?xml version="1.0" encoding="utf-8" standalone="no"?>
<!DOCTYPE svg PUBLIC "-//W3C//DTD SVG 1.1//EN"
  "http://www.w3.org/Graphics/SVG/1.1/DTD/svg11.dtd">
<svg xmlns:xlink="http://www.w3.org/1999/xlink" width="401.128277pt" height="348.709346pt" viewBox="0 0 401.128277 348.709346" xmlns="http://www.w3.org/2000/svg" version="1.1">
 <metadata>
  <rdf:RDF xmlns:dc="http://purl.org/dc/elements/1.1/" xmlns:cc="http://creativecommons.org/ns#" xmlns:rdf="http://www.w3.org/1999/02/22-rdf-syntax-ns#">
   <cc:Work>
    <dc:type rdf:resource="http://purl.org/dc/dcmitype/StillImage"/>
    <dc:date>2025-12-19T11:49:24.526386</dc:date>
    <dc:format>image/svg+xml</dc:format>
    <dc:creator>
     <cc:Agent>
      <dc:title>Matplotlib v3.10.8, https://matplotlib.org/</dc:title>
     </cc:Agent>
    </dc:creator>
   </cc:Work>
  </rdf:RDF>
 </metadata>
 <defs>
  <style type="text/css">*{stroke-linejoin: round; stroke-linecap: butt}</style>
 </defs>
 <g id="figure_1">
  <g id="patch_1">
   <path d="M 0 348.709346 
L 401.128277 348.709346 
L 401.128277 0 
L 0 0 
z
" style="fill: #ffffff"/>
  </g>
  <g id="axes_1">
   <g id="patch_2">
    <path d="M 53.368281 306.834502 
L 341.762977 306.834502 
L 341.762977 7.557804 
L 53.368281 7.557804 
z
" style="fill: #ffffff"/>
   </g>
   <g id="matplotlib.axis_1">
    <g id="xtick_1">
     <g id="line2d_1">
      <path d="M 114.772894 306.834502 
L 114.772894 7.557804 
" clip-path="url(#p40ec05e264)" style="fill: none; stroke: #cccccc; stroke-linecap: round"/>
     </g>
     <g id="text_1">
      <!-- 30 -->
      <g style="fill: #262626" transform="translate(108.655862 324.208096) scale(0.11 -0.11)">
       <defs>
        <path id="ArialMT-33" d="M 269 1209 
L 831 1284 
Q 928 806 1161 595 
Q 1394 384 1728 384 
Q 2125 384 2398 659 
Q 2672 934 2672 1341 
Q 2672 1728 2419 1979 
Q 2166 2231 1775 2231 
Q 1616 2231 1378 2169 
L 1441 2663 
Q 1497 2656 1531 2656 
Q 1891 2656 2178 2843 
Q 2466 3031 2466 3422 
Q 2466 3731 2256 3934 
Q 2047 4138 1716 4138 
Q 1388 4138 1169 3931 
Q 950 3725 888 3313 
L 325 3413 
Q 428 3978 793 4289 
Q 1159 4600 1703 4600 
Q 2078 4600 2393 4439 
Q 2709 4278 2876 4000 
Q 3044 3722 3044 3409 
Q 3044 3113 2884 2869 
Q 2725 2625 2413 2481 
Q 2819 2388 3044 2092 
Q 3269 1797 3269 1353 
Q 3269 753 2831 336 
Q 2394 -81 1725 -81 
Q 1122 -81 723 278 
Q 325 638 269 1209 
z
" transform="scale(0.015625)"/>
        <path id="ArialMT-30" d="M 266 2259 
Q 266 3072 433 3567 
Q 600 4063 929 4331 
Q 1259 4600 1759 4600 
Q 2128 4600 2406 4451 
Q 2684 4303 2865 4023 
Q 3047 3744 3150 3342 
Q 3253 2941 3253 2259 
Q 3253 1453 3087 958 
Q 2922 463 2592 192 
Q 2263 -78 1759 -78 
Q 1097 -78 719 397 
Q 266 969 266 2259 
z
M 844 2259 
Q 844 1131 1108 757 
Q 1372 384 1759 384 
Q 2147 384 2411 759 
Q 2675 1134 2675 2259 
Q 2675 3391 2411 3762 
Q 2147 4134 1753 4134 
Q 1366 4134 1134 3806 
Q 844 3388 844 2259 
z
" transform="scale(0.015625)"/>
       </defs>
       <use xlink:href="#ArialMT-33"/>
       <use xlink:href="#ArialMT-30" transform="translate(55.615234 0)"/>
      </g>
     </g>
    </g>
    <g id="xtick_2">
     <g id="line2d_2">
      <path d="M 183.76684 306.834502 
L 183.76684 7.557804 
" clip-path="url(#p40ec05e264)" style="fill: none; stroke: #cccccc; stroke-linecap: round"/>
     </g>
     <g id="text_2">
      <!-- 40 -->
      <g style="fill: #262626" transform="translate(177.649809 324.208096) scale(0.11 -0.11)">
       <defs>
        <path id="ArialMT-34" d="M 2069 0 
L 2069 1097 
L 81 1097 
L 81 1613 
L 2172 4581 
L 2631 4581 
L 2631 1613 
L 3250 1613 
L 3250 1097 
L 2631 1097 
L 2631 0 
L 2069 0 
z
M 2069 1613 
L 2069 3678 
L 634 1613 
L 2069 1613 
z
" transform="scale(0.015625)"/>
       </defs>
       <use xlink:href="#ArialMT-34"/>
       <use xlink:href="#ArialMT-30" transform="translate(55.615234 0)"/>
      </g>
     </g>
    </g>
    <g id="xtick_3">
     <g id="line2d_3">
      <path d="M 252.760786 306.834502 
L 252.760786 7.557804 
" clip-path="url(#p40ec05e264)" style="fill: none; stroke: #cccccc; stroke-linecap: round"/>
     </g>
     <g id="text_3">
      <!-- 50 -->
      <g style="fill: #262626" transform="translate(246.643755 324.208096) scale(0.11 -0.11)">
       <defs>
        <path id="ArialMT-35" d="M 266 1200 
L 856 1250 
Q 922 819 1161 601 
Q 1400 384 1738 384 
Q 2144 384 2425 690 
Q 2706 997 2706 1503 
Q 2706 1984 2436 2262 
Q 2166 2541 1728 2541 
Q 1456 2541 1237 2417 
Q 1019 2294 894 2097 
L 366 2166 
L 809 4519 
L 3088 4519 
L 3088 3981 
L 1259 3981 
L 1013 2750 
Q 1425 3038 1878 3038 
Q 2478 3038 2890 2622 
Q 3303 2206 3303 1553 
Q 3303 931 2941 478 
Q 2500 -78 1738 -78 
Q 1113 -78 717 272 
Q 322 622 266 1200 
z
" transform="scale(0.015625)"/>
       </defs>
       <use xlink:href="#ArialMT-35"/>
       <use xlink:href="#ArialMT-30" transform="translate(55.615234 0)"/>
      </g>
     </g>
    </g>
    <g id="xtick_4">
     <g id="line2d_4">
      <path d="M 321.754733 306.834502 
L 321.754733 7.557804 
" clip-path="url(#p40ec05e264)" style="fill: none; stroke: #cccccc; stroke-linecap: round"/>
     </g>
     <g id="text_4">
      <!-- 60 -->
      <g style="fill: #262626" transform="translate(315.637701 324.208096) scale(0.11 -0.11)">
       <defs>
        <path id="ArialMT-36" d="M 3184 3459 
L 2625 3416 
Q 2550 3747 2413 3897 
Q 2184 4138 1850 4138 
Q 1581 4138 1378 3988 
Q 1113 3794 959 3422 
Q 806 3050 800 2363 
Q 1003 2672 1297 2822 
Q 1591 2972 1913 2972 
Q 2475 2972 2870 2558 
Q 3266 2144 3266 1488 
Q 3266 1056 3080 686 
Q 2894 316 2569 119 
Q 2244 -78 1831 -78 
Q 1128 -78 684 439 
Q 241 956 241 2144 
Q 241 3472 731 4075 
Q 1159 4600 1884 4600 
Q 2425 4600 2770 4297 
Q 3116 3994 3184 3459 
z
M 888 1484 
Q 888 1194 1011 928 
Q 1134 663 1356 523 
Q 1578 384 1822 384 
Q 2178 384 2434 671 
Q 2691 959 2691 1453 
Q 2691 1928 2437 2201 
Q 2184 2475 1800 2475 
Q 1419 2475 1153 2201 
Q 888 1928 888 1484 
z
" transform="scale(0.015625)"/>
       </defs>
       <use xlink:href="#ArialMT-36"/>
       <use xlink:href="#ArialMT-30" transform="translate(55.615234 0)"/>
      </g>
     </g>
    </g>
    <g id="text_5">
     <!-- Age -->
     <g style="fill: #262626" transform="translate(186.890317 338.983721) scale(0.12 -0.12)">
      <defs>
       <path id="ArialMT-41" d="M -9 0 
L 1750 4581 
L 2403 4581 
L 4278 0 
L 3588 0 
L 3053 1388 
L 1138 1388 
L 634 0 
L -9 0 
z
M 1313 1881 
L 2866 1881 
L 2388 3150 
Q 2169 3728 2063 4100 
Q 1975 3659 1816 3225 
L 1313 1881 
z
" transform="scale(0.015625)"/>
       <path id="ArialMT-67" d="M 319 -275 
L 866 -356 
Q 900 -609 1056 -725 
Q 1266 -881 1628 -881 
Q 2019 -881 2231 -725 
Q 2444 -569 2519 -288 
Q 2563 -116 2559 434 
Q 2191 0 1641 0 
Q 956 0 581 494 
Q 206 988 206 1678 
Q 206 2153 378 2554 
Q 550 2956 876 3175 
Q 1203 3394 1644 3394 
Q 2231 3394 2613 2919 
L 2613 3319 
L 3131 3319 
L 3131 450 
Q 3131 -325 2973 -648 
Q 2816 -972 2473 -1159 
Q 2131 -1347 1631 -1347 
Q 1038 -1347 672 -1080 
Q 306 -813 319 -275 
z
M 784 1719 
Q 784 1066 1043 766 
Q 1303 466 1694 466 
Q 2081 466 2343 764 
Q 2606 1063 2606 1700 
Q 2606 2309 2336 2618 
Q 2066 2928 1684 2928 
Q 1309 2928 1046 2623 
Q 784 2319 784 1719 
z
" transform="scale(0.015625)"/>
       <path id="ArialMT-65" d="M 2694 1069 
L 3275 997 
Q 3138 488 2766 206 
Q 2394 -75 1816 -75 
Q 1088 -75 661 373 
Q 234 822 234 1631 
Q 234 2469 665 2931 
Q 1097 3394 1784 3394 
Q 2450 3394 2872 2941 
Q 3294 2488 3294 1666 
Q 3294 1616 3291 1516 
L 816 1516 
Q 847 969 1125 678 
Q 1403 388 1819 388 
Q 2128 388 2347 550 
Q 2566 713 2694 1069 
z
M 847 1978 
L 2700 1978 
Q 2663 2397 2488 2606 
Q 2219 2931 1791 2931 
Q 1403 2931 1139 2672 
Q 875 2413 847 1978 
z
" transform="scale(0.015625)"/>
      </defs>
      <use xlink:href="#ArialMT-41"/>
      <use xlink:href="#ArialMT-67" transform="translate(66.699219 0)"/>
      <use xlink:href="#ArialMT-65" transform="translate(122.314453 0)"/>
     </g>
    </g>
   </g>
   <g id="matplotlib.axis_2">
    <g id="ytick_1">
     <g id="line2d_5">
      <path d="M 53.368281 275.638109 
L 341.762977 275.638109 
" clip-path="url(#p40ec05e264)" style="fill: none; stroke: #cccccc; stroke-linecap: round"/>
     </g>
     <g id="text_6">
      <!-- 0.0 -->
      <g style="fill: #262626" transform="translate(28.578281 279.574906) scale(0.11 -0.11)">
       <defs>
        <path id="ArialMT-2e" d="M 581 0 
L 581 641 
L 1222 641 
L 1222 0 
L 581 0 
z
" transform="scale(0.015625)"/>
       </defs>
       <use xlink:href="#ArialMT-30"/>
       <use xlink:href="#ArialMT-2e" transform="translate(55.615234 0)"/>
       <use xlink:href="#ArialMT-30" transform="translate(83.398438 0)"/>
      </g>
     </g>
    </g>
    <g id="ytick_2">
     <g id="line2d_6">
      <path d="M 53.368281 237.852208 
L 341.762977 237.852208 
" clip-path="url(#p40ec05e264)" style="fill: none; stroke: #cccccc; stroke-linecap: round"/>
     </g>
     <g id="text_7">
      <!-- 2.5 -->
      <g style="fill: #262626" transform="translate(28.578281 241.789004) scale(0.11 -0.11)">
       <defs>
        <path id="ArialMT-32" d="M 3222 541 
L 3222 0 
L 194 0 
Q 188 203 259 391 
Q 375 700 629 1000 
Q 884 1300 1366 1694 
Q 2113 2306 2375 2664 
Q 2638 3022 2638 3341 
Q 2638 3675 2398 3904 
Q 2159 4134 1775 4134 
Q 1369 4134 1125 3890 
Q 881 3647 878 3216 
L 300 3275 
Q 359 3922 746 4261 
Q 1134 4600 1788 4600 
Q 2447 4600 2831 4234 
Q 3216 3869 3216 3328 
Q 3216 3053 3103 2787 
Q 2991 2522 2730 2228 
Q 2469 1934 1863 1422 
Q 1356 997 1212 845 
Q 1069 694 975 541 
L 3222 541 
z
" transform="scale(0.015625)"/>
       </defs>
       <use xlink:href="#ArialMT-32"/>
       <use xlink:href="#ArialMT-2e" transform="translate(55.615234 0)"/>
       <use xlink:href="#ArialMT-35" transform="translate(83.398438 0)"/>
      </g>
     </g>
    </g>
    <g id="ytick_3">
     <g id="line2d_7">
      <path d="M 53.368281 200.066306 
L 341.762977 200.066306 
" clip-path="url(#p40ec05e264)" style="fill: none; stroke: #cccccc; stroke-linecap: round"/>
     </g>
     <g id="text_8">
      <!-- 5.0 -->
      <g style="fill: #262626" transform="translate(28.578281 204.003103) scale(0.11 -0.11)">
       <use xlink:href="#ArialMT-35"/>
       <use xlink:href="#ArialMT-2e" transform="translate(55.615234 0)"/>
       <use xlink:href="#ArialMT-30" transform="translate(83.398438 0)"/>
      </g>
     </g>
    </g>
    <g id="ytick_4">
     <g id="line2d_8">
      <path d="M 53.368281 162.280404 
L 341.762977 162.280404 
" clip-path="url(#p40ec05e264)" style="fill: none; stroke: #cccccc; stroke-linecap: round"/>
     </g>
     <g id="text_9">
      <!-- 7.5 -->
      <g style="fill: #262626" transform="translate(28.578281 166.217201) scale(0.11 -0.11)">
       <defs>
        <path id="ArialMT-37" d="M 303 3981 
L 303 4522 
L 3269 4522 
L 3269 4084 
Q 2831 3619 2401 2847 
Q 1972 2075 1738 1259 
Q 1569 684 1522 0 
L 944 0 
Q 953 541 1156 1306 
Q 1359 2072 1739 2783 
Q 2119 3494 2547 3981 
L 303 3981 
z
" transform="scale(0.015625)"/>
       </defs>
       <use xlink:href="#ArialMT-37"/>
       <use xlink:href="#ArialMT-2e" transform="translate(55.615234 0)"/>
       <use xlink:href="#ArialMT-35" transform="translate(83.398438 0)"/>
      </g>
     </g>
    </g>
    <g id="ytick_5">
     <g id="line2d_9">
      <path d="M 53.368281 124.494502 
L 341.762977 124.494502 
" clip-path="url(#p40ec05e264)" style="fill: none; stroke: #cccccc; stroke-linecap: round"/>
     </g>
     <g id="text_10">
      <!-- 10.0 -->
      <g style="fill: #262626" transform="translate(22.46125 128.431299) scale(0.11 -0.11)">
       <defs>
        <path id="ArialMT-31" d="M 2384 0 
L 1822 0 
L 1822 3584 
Q 1619 3391 1289 3197 
Q 959 3003 697 2906 
L 697 3450 
Q 1169 3672 1522 3987 
Q 1875 4303 2022 4600 
L 2384 4600 
L 2384 0 
z
" transform="scale(0.015625)"/>
       </defs>
       <use xlink:href="#ArialMT-31"/>
       <use xlink:href="#ArialMT-30" transform="translate(55.615234 0)"/>
       <use xlink:href="#ArialMT-2e" transform="translate(111.230469 0)"/>
       <use xlink:href="#ArialMT-30" transform="translate(139.013672 0)"/>
      </g>
     </g>
    </g>
    <g id="ytick_6">
     <g id="line2d_10">
      <path d="M 53.368281 86.7086 
L 341.762977 86.7086 
" clip-path="url(#p40ec05e264)" style="fill: none; stroke: #cccccc; stroke-linecap: round"/>
     </g>
     <g id="text_11">
      <!-- 12.5 -->
      <g style="fill: #262626" transform="translate(22.46125 90.645397) scale(0.11 -0.11)">
       <use xlink:href="#ArialMT-31"/>
       <use xlink:href="#ArialMT-32" transform="translate(55.615234 0)"/>
       <use xlink:href="#ArialMT-2e" transform="translate(111.230469 0)"/>
       <use xlink:href="#ArialMT-35" transform="translate(139.013672 0)"/>
      </g>
     </g>
    </g>
    <g id="ytick_7">
     <g id="line2d_11">
      <path d="M 53.368281 48.922699 
L 341.762977 48.922699 
" clip-path="url(#p40ec05e264)" style="fill: none; stroke: #cccccc; stroke-linecap: round"/>
     </g>
     <g id="text_12">
      <!-- 15.0 -->
      <g style="fill: #262626" transform="translate(22.46125 52.859496) scale(0.11 -0.11)">
       <use xlink:href="#ArialMT-31"/>
       <use xlink:href="#ArialMT-35" transform="translate(55.615234 0)"/>
       <use xlink:href="#ArialMT-2e" transform="translate(111.230469 0)"/>
       <use xlink:href="#ArialMT-30" transform="translate(139.013672 0)"/>
      </g>
     </g>
    </g>
    <g id="ytick_8">
     <g id="line2d_12">
      <path d="M 53.368281 11.136797 
L 341.762977 11.136797 
" clip-path="url(#p40ec05e264)" style="fill: none; stroke: #cccccc; stroke-linecap: round"/>
     </g>
     <g id="text_13">
      <!-- 17.5 -->
      <g style="fill: #262626" transform="translate(22.46125 15.073594) scale(0.11 -0.11)">
       <use xlink:href="#ArialMT-31"/>
       <use xlink:href="#ArialMT-37" transform="translate(55.615234 0)"/>
       <use xlink:href="#ArialMT-2e" transform="translate(111.230469 0)"/>
       <use xlink:href="#ArialMT-35" transform="translate(139.013672 0)"/>
      </g>
     </g>
    </g>
    <g id="text_14">
     <!-- How informal you can be -->
     <g style="fill: #262626" transform="translate(15.935625 223.224278) rotate(-90) scale(0.12 -0.12)">
      <defs>
       <path id="ArialMT-48" d="M 513 0 
L 513 4581 
L 1119 4581 
L 1119 2700 
L 3500 2700 
L 3500 4581 
L 4106 4581 
L 4106 0 
L 3500 0 
L 3500 2159 
L 1119 2159 
L 1119 0 
L 513 0 
z
" transform="scale(0.015625)"/>
       <path id="ArialMT-6f" d="M 213 1659 
Q 213 2581 725 3025 
Q 1153 3394 1769 3394 
Q 2453 3394 2887 2945 
Q 3322 2497 3322 1706 
Q 3322 1066 3130 698 
Q 2938 331 2570 128 
Q 2203 -75 1769 -75 
Q 1072 -75 642 372 
Q 213 819 213 1659 
z
M 791 1659 
Q 791 1022 1069 705 
Q 1347 388 1769 388 
Q 2188 388 2466 706 
Q 2744 1025 2744 1678 
Q 2744 2294 2464 2611 
Q 2184 2928 1769 2928 
Q 1347 2928 1069 2612 
Q 791 2297 791 1659 
z
" transform="scale(0.015625)"/>
       <path id="ArialMT-77" d="M 1034 0 
L 19 3319 
L 600 3319 
L 1128 1403 
L 1325 691 
Q 1338 744 1497 1375 
L 2025 3319 
L 2603 3319 
L 3100 1394 
L 3266 759 
L 3456 1400 
L 4025 3319 
L 4572 3319 
L 3534 0 
L 2950 0 
L 2422 1988 
L 2294 2553 
L 1622 0 
L 1034 0 
z
" transform="scale(0.015625)"/>
       <path id="ArialMT-20" transform="scale(0.015625)"/>
       <path id="ArialMT-69" d="M 425 3934 
L 425 4581 
L 988 4581 
L 988 3934 
L 425 3934 
z
M 425 0 
L 425 3319 
L 988 3319 
L 988 0 
L 425 0 
z
" transform="scale(0.015625)"/>
       <path id="ArialMT-6e" d="M 422 0 
L 422 3319 
L 928 3319 
L 928 2847 
Q 1294 3394 1984 3394 
Q 2284 3394 2536 3286 
Q 2788 3178 2913 3003 
Q 3038 2828 3088 2588 
Q 3119 2431 3119 2041 
L 3119 0 
L 2556 0 
L 2556 2019 
Q 2556 2363 2490 2533 
Q 2425 2703 2258 2804 
Q 2091 2906 1866 2906 
Q 1506 2906 1245 2678 
Q 984 2450 984 1813 
L 984 0 
L 422 0 
z
" transform="scale(0.015625)"/>
       <path id="ArialMT-66" d="M 556 0 
L 556 2881 
L 59 2881 
L 59 3319 
L 556 3319 
L 556 3672 
Q 556 4006 616 4169 
Q 697 4388 901 4523 
Q 1106 4659 1475 4659 
Q 1713 4659 2000 4603 
L 1916 4113 
Q 1741 4144 1584 4144 
Q 1328 4144 1222 4034 
Q 1116 3925 1116 3625 
L 1116 3319 
L 1763 3319 
L 1763 2881 
L 1116 2881 
L 1116 0 
L 556 0 
z
" transform="scale(0.015625)"/>
       <path id="ArialMT-72" d="M 416 0 
L 416 3319 
L 922 3319 
L 922 2816 
Q 1116 3169 1280 3281 
Q 1444 3394 1641 3394 
Q 1925 3394 2219 3213 
L 2025 2691 
Q 1819 2813 1613 2813 
Q 1428 2813 1281 2702 
Q 1134 2591 1072 2394 
Q 978 2094 978 1738 
L 978 0 
L 416 0 
z
" transform="scale(0.015625)"/>
       <path id="ArialMT-6d" d="M 422 0 
L 422 3319 
L 925 3319 
L 925 2853 
Q 1081 3097 1340 3245 
Q 1600 3394 1931 3394 
Q 2300 3394 2536 3241 
Q 2772 3088 2869 2813 
Q 3263 3394 3894 3394 
Q 4388 3394 4653 3120 
Q 4919 2847 4919 2278 
L 4919 0 
L 4359 0 
L 4359 2091 
Q 4359 2428 4304 2576 
Q 4250 2725 4106 2815 
Q 3963 2906 3769 2906 
Q 3419 2906 3187 2673 
Q 2956 2441 2956 1928 
L 2956 0 
L 2394 0 
L 2394 2156 
Q 2394 2531 2256 2718 
Q 2119 2906 1806 2906 
Q 1569 2906 1367 2781 
Q 1166 2656 1075 2415 
Q 984 2175 984 1722 
L 984 0 
L 422 0 
z
" transform="scale(0.015625)"/>
       <path id="ArialMT-61" d="M 2588 409 
Q 2275 144 1986 34 
Q 1697 -75 1366 -75 
Q 819 -75 525 192 
Q 231 459 231 875 
Q 231 1119 342 1320 
Q 453 1522 633 1644 
Q 813 1766 1038 1828 
Q 1203 1872 1538 1913 
Q 2219 1994 2541 2106 
Q 2544 2222 2544 2253 
Q 2544 2597 2384 2738 
Q 2169 2928 1744 2928 
Q 1347 2928 1158 2789 
Q 969 2650 878 2297 
L 328 2372 
Q 403 2725 575 2942 
Q 747 3159 1072 3276 
Q 1397 3394 1825 3394 
Q 2250 3394 2515 3294 
Q 2781 3194 2906 3042 
Q 3031 2891 3081 2659 
Q 3109 2516 3109 2141 
L 3109 1391 
Q 3109 606 3145 398 
Q 3181 191 3288 0 
L 2700 0 
Q 2613 175 2588 409 
z
M 2541 1666 
Q 2234 1541 1622 1453 
Q 1275 1403 1131 1340 
Q 988 1278 909 1158 
Q 831 1038 831 891 
Q 831 666 1001 516 
Q 1172 366 1500 366 
Q 1825 366 2078 508 
Q 2331 650 2450 897 
Q 2541 1088 2541 1459 
L 2541 1666 
z
" transform="scale(0.015625)"/>
       <path id="ArialMT-6c" d="M 409 0 
L 409 4581 
L 972 4581 
L 972 0 
L 409 0 
z
" transform="scale(0.015625)"/>
       <path id="ArialMT-79" d="M 397 -1278 
L 334 -750 
Q 519 -800 656 -800 
Q 844 -800 956 -737 
Q 1069 -675 1141 -563 
Q 1194 -478 1313 -144 
Q 1328 -97 1363 -6 
L 103 3319 
L 709 3319 
L 1400 1397 
Q 1534 1031 1641 628 
Q 1738 1016 1872 1384 
L 2581 3319 
L 3144 3319 
L 1881 -56 
Q 1678 -603 1566 -809 
Q 1416 -1088 1222 -1217 
Q 1028 -1347 759 -1347 
Q 597 -1347 397 -1278 
z
" transform="scale(0.015625)"/>
       <path id="ArialMT-75" d="M 2597 0 
L 2597 488 
Q 2209 -75 1544 -75 
Q 1250 -75 995 37 
Q 741 150 617 320 
Q 494 491 444 738 
Q 409 903 409 1263 
L 409 3319 
L 972 3319 
L 972 1478 
Q 972 1038 1006 884 
Q 1059 663 1231 536 
Q 1403 409 1656 409 
Q 1909 409 2131 539 
Q 2353 669 2445 892 
Q 2538 1116 2538 1541 
L 2538 3319 
L 3100 3319 
L 3100 0 
L 2597 0 
z
" transform="scale(0.015625)"/>
       <path id="ArialMT-63" d="M 2588 1216 
L 3141 1144 
Q 3050 572 2676 248 
Q 2303 -75 1759 -75 
Q 1078 -75 664 370 
Q 250 816 250 1647 
Q 250 2184 428 2587 
Q 606 2991 970 3192 
Q 1334 3394 1763 3394 
Q 2303 3394 2647 3120 
Q 2991 2847 3088 2344 
L 2541 2259 
Q 2463 2594 2264 2762 
Q 2066 2931 1784 2931 
Q 1359 2931 1093 2626 
Q 828 2322 828 1663 
Q 828 994 1084 691 
Q 1341 388 1753 388 
Q 2084 388 2306 591 
Q 2528 794 2588 1216 
z
" transform="scale(0.015625)"/>
       <path id="ArialMT-62" d="M 941 0 
L 419 0 
L 419 4581 
L 981 4581 
L 981 2947 
Q 1338 3394 1891 3394 
Q 2197 3394 2470 3270 
Q 2744 3147 2920 2923 
Q 3097 2700 3197 2384 
Q 3297 2069 3297 1709 
Q 3297 856 2875 390 
Q 2453 -75 1863 -75 
Q 1275 -75 941 416 
L 941 0 
z
M 934 1684 
Q 934 1088 1097 822 
Q 1363 388 1816 388 
Q 2184 388 2453 708 
Q 2722 1028 2722 1663 
Q 2722 2313 2464 2622 
Q 2206 2931 1841 2931 
Q 1472 2931 1203 2611 
Q 934 2291 934 1684 
z
" transform="scale(0.015625)"/>
      </defs>
      <use xlink:href="#ArialMT-48"/>
      <use xlink:href="#ArialMT-6f" transform="translate(72.216797 0)"/>
      <use xlink:href="#ArialMT-77" transform="translate(127.832031 0)"/>
      <use xlink:href="#ArialMT-20" transform="translate(200.048828 0)"/>
      <use xlink:href="#ArialMT-69" transform="translate(227.832031 0)"/>
      <use xlink:href="#ArialMT-6e" transform="translate(250.048828 0)"/>
      <use xlink:href="#ArialMT-66" transform="translate(305.664062 0)"/>
      <use xlink:href="#ArialMT-6f" transform="translate(333.447266 0)"/>
      <use xlink:href="#ArialMT-72" transform="translate(389.0625 0)"/>
      <use xlink:href="#ArialMT-6d" transform="translate(422.363281 0)"/>
      <use xlink:href="#ArialMT-61" transform="translate(505.664062 0)"/>
      <use xlink:href="#ArialMT-6c" transform="translate(561.279297 0)"/>
      <use xlink:href="#ArialMT-20" transform="translate(583.496094 0)"/>
      <use xlink:href="#ArialMT-79" transform="translate(611.279297 0)"/>
      <use xlink:href="#ArialMT-6f" transform="translate(661.279297 0)"/>
      <use xlink:href="#ArialMT-75" transform="translate(716.894531 0)"/>
      <use xlink:href="#ArialMT-20" transform="translate(772.509766 0)"/>
      <use xlink:href="#ArialMT-63" transform="translate(800.292969 0)"/>
      <use xlink:href="#ArialMT-61" transform="translate(850.292969 0)"/>
      <use xlink:href="#ArialMT-6e" transform="translate(905.908203 0)"/>
      <use xlink:href="#ArialMT-20" transform="translate(961.523438 0)"/>
      <use xlink:href="#ArialMT-62" transform="translate(989.306641 0)"/>
      <use xlink:href="#ArialMT-65" transform="translate(1044.921875 0)"/>
     </g>
    </g>
   </g>
   <g id="PathCollection_1">
    <defs>
     <path id="m496ff2da8b" d="M 0 3 
C 0.795609 3 1.55874 2.683901 2.12132 2.12132 
C 2.683901 1.55874 3 0.795609 3 0 
C 3 -0.795609 2.683901 -1.55874 2.12132 -2.12132 
C 1.55874 -2.683901 0.795609 -3 0 -3 
C -0.795609 -3 -1.55874 -2.683901 -2.12132 -2.12132 
C -2.683901 -1.55874 -3 -0.795609 -3 0 
C -3 0.795609 -2.683901 1.55874 -2.12132 2.12132 
C -1.55874 2.683901 -0.795609 3 0 3 
z
" style="stroke: #443983; stroke-opacity: 0.8"/>
    </defs>
    <g clip-path="url(#p40ec05e264)">
     <use xlink:href="#m496ff2da8b" x="197.565629" y="132.560263" style="fill: #443983; fill-opacity: 0.8; stroke: #443983; stroke-opacity: 0.8"/>
     <use xlink:href="#m496ff2da8b" x="149.269867" y="107.989737" style="fill: #443983; fill-opacity: 0.8; stroke: #443983; stroke-opacity: 0.8"/>
    </g>
   </g>
   <g id="FillBetweenPolyCollection_1">
    <defs>
     <path id="mf7751b07d2" d="M 149.269867 -240.719609 
L 149.269867 -192.316286 
L 149.757703 -192.557021 
L 150.245539 -192.797757 
L 150.733375 -193.038492 
L 151.221211 -193.279227 
L 151.709047 -193.519963 
L 152.196883 -193.760698 
L 152.684719 -194.001433 
L 153.172555 -194.242169 
L 153.660391 -194.482904 
L 154.148227 -194.723639 
L 154.636063 -194.964375 
L 155.123899 -195.20511 
L 155.611735 -195.445845 
L 156.099571 -195.686581 
L 156.587407 -195.927316 
L 157.075242 -196.168051 
L 157.563078 -196.408787 
L 158.050914 -196.649522 
L 158.53875 -196.890257 
L 159.026586 -197.130993 
L 159.514422 -197.371728 
L 160.002258 -197.612463 
L 160.490094 -197.853199 
L 160.97793 -198.093934 
L 161.465766 -198.334669 
L 161.953602 -198.575405 
L 162.441438 -198.81614 
L 162.929274 -199.056875 
L 163.41711 -199.29761 
L 163.904946 -199.538346 
L 164.392782 -199.779081 
L 164.880618 -200.019816 
L 165.368454 -200.260552 
L 165.85629 -200.501287 
L 166.344126 -200.742022 
L 166.831962 -200.982758 
L 167.319798 -201.223493 
L 167.807634 -201.464228 
L 168.29547 -201.704964 
L 168.783306 -201.945699 
L 169.271142 -202.186434 
L 169.758978 -202.42717 
L 170.246814 -202.667905 
L 170.73465 -202.90864 
L 171.222486 -203.149376 
L 171.710322 -203.390111 
L 172.198158 -203.630846 
L 172.685994 -203.871582 
L 173.17383 -204.112317 
L 173.661666 -204.353052 
L 174.149502 -204.593788 
L 174.637338 -204.834523 
L 175.125174 -205.075258 
L 175.61301 -205.315994 
L 176.100846 -205.556729 
L 176.588682 -205.797464 
L 177.076518 -206.0382 
L 177.564354 -206.278935 
L 178.05219 -206.51967 
L 178.540026 -206.760406 
L 179.027862 -207.001141 
L 179.515698 -207.241876 
L 180.003534 -207.482612 
L 180.49137 -207.723347 
L 180.979206 -207.964082 
L 181.467042 -208.204817 
L 181.954878 -208.445553 
L 182.442714 -208.686288 
L 182.93055 -208.927023 
L 183.418386 -209.167759 
L 183.906222 -209.408494 
L 184.394058 -209.649229 
L 184.881894 -209.889965 
L 185.36973 -210.1307 
L 185.857566 -210.371435 
L 186.345402 -210.612171 
L 186.833238 -210.852906 
L 187.321074 -211.093641 
L 187.80891 -211.334377 
L 188.296746 -211.575112 
L 188.784581 -211.815847 
L 189.272417 -212.056583 
L 189.760253 -212.297318 
L 190.248089 -212.538053 
L 190.735925 -212.778789 
L 191.223761 -213.019524 
L 191.711597 -213.260259 
L 192.199433 -213.500995 
L 192.687269 -213.74173 
L 193.175105 -213.982465 
L 193.662941 -214.223201 
L 194.150777 -214.463936 
L 194.638613 -214.704671 
L 195.126449 -214.945407 
L 195.614285 -215.186142 
L 196.102121 -215.426877 
L 196.589957 -215.667613 
L 197.077793 -215.908348 
L 197.565629 -216.149083 
L 197.565629 -274.221934 
L 197.565629 -274.221934 
L 197.077793 -273.883527 
L 196.589957 -273.54512 
L 196.102121 -273.206712 
L 195.614285 -272.868305 
L 195.126449 -272.529898 
L 194.638613 -272.19149 
L 194.150777 -271.853083 
L 193.662941 -271.514676 
L 193.175105 -271.176268 
L 192.687269 -270.837861 
L 192.199433 -270.499454 
L 191.711597 -270.161046 
L 191.223761 -269.822639 
L 190.735925 -269.484232 
L 190.248089 -269.145824 
L 189.760253 -268.807417 
L 189.272417 -268.46901 
L 188.784581 -268.130602 
L 188.296746 -267.792195 
L 187.80891 -267.453788 
L 187.321074 -267.11538 
L 186.833238 -266.776973 
L 186.345402 -266.438566 
L 185.857566 -266.100158 
L 185.36973 -265.761751 
L 184.881894 -265.423344 
L 184.394058 -265.084936 
L 183.906222 -264.746529 
L 183.418386 -264.408122 
L 182.93055 -264.069714 
L 182.442714 -263.731307 
L 181.954878 -263.3929 
L 181.467042 -263.054492 
L 180.979206 -262.716085 
L 180.49137 -262.377678 
L 180.003534 -262.03927 
L 179.515698 -261.700863 
L 179.027862 -261.362456 
L 178.540026 -261.024048 
L 178.05219 -260.685641 
L 177.564354 -260.347234 
L 177.076518 -260.008826 
L 176.588682 -259.670419 
L 176.100846 -259.332012 
L 175.61301 -258.993604 
L 175.125174 -258.655197 
L 174.637338 -258.31679 
L 174.149502 -257.978382 
L 173.661666 -257.639975 
L 173.17383 -257.301568 
L 172.685994 -256.96316 
L 172.198158 -256.624753 
L 171.710322 -256.286346 
L 171.222486 -255.947938 
L 170.73465 -255.609531 
L 170.246814 -255.271124 
L 169.758978 -254.932717 
L 169.271142 -254.594309 
L 168.783306 -254.255902 
L 168.29547 -253.917495 
L 167.807634 -253.579087 
L 167.319798 -253.24068 
L 166.831962 -252.902273 
L 166.344126 -252.563865 
L 165.85629 -252.225458 
L 165.368454 -251.887051 
L 164.880618 -251.548643 
L 164.392782 -251.210236 
L 163.904946 -250.871829 
L 163.41711 -250.533421 
L 162.929274 -250.195014 
L 162.441438 -249.856607 
L 161.953602 -249.518199 
L 161.465766 -249.179792 
L 160.97793 -248.841385 
L 160.490094 -248.502977 
L 160.002258 -248.16457 
L 159.514422 -247.826163 
L 159.026586 -247.487755 
L 158.53875 -247.149348 
L 158.050914 -246.810941 
L 157.563078 -246.472533 
L 157.075242 -246.134126 
L 156.587407 -245.795719 
L 156.099571 -245.457311 
L 155.611735 -245.118904 
L 155.123899 -244.780497 
L 154.636063 -244.442089 
L 154.148227 -244.103682 
L 153.660391 -243.765275 
L 153.172555 -243.426867 
L 152.684719 -243.08846 
L 152.196883 -242.750053 
L 151.709047 -242.411645 
L 151.221211 -242.073238 
L 150.733375 -241.734831 
L 150.245539 -241.396423 
L 149.757703 -241.058016 
L 149.269867 -240.719609 
z
" style="stroke: #ffffff; stroke-opacity: 0.15"/>
    </defs>
    <g clip-path="url(#p40ec05e264)">
     <use xlink:href="#mf7751b07d2" x="0" y="348.709346" style="fill: #443983; fill-opacity: 0.15; stroke: #ffffff; stroke-opacity: 0.15"/>
    </g>
   </g>
   <g id="PathCollection_2">
    <defs>
     <path id="m18b6b09d21" d="M 0 3 
C 0.795609 3 1.55874 2.683901 2.12132 2.12132 
C 2.683901 1.55874 3 0.795609 3 0 
C 3 -0.795609 2.683901 -1.55874 2.12132 -2.12132 
C 1.55874 -2.683901 0.795609 -3 0 -3 
C -0.795609 -3 -1.55874 -2.683901 -2.12132 -2.12132 
C -2.683901 -1.55874 -3 -0.795609 -3 0 
C -3 0.795609 -2.683901 1.55874 -2.12132 2.12132 
C -1.55874 2.683901 -0.795609 3 0 3 
z
" style="stroke: #31688e; stroke-opacity: 0.8"/>
    </defs>
    <g clip-path="url(#p40ec05e264)">
     <use xlink:href="#m18b6b09d21" x="142.370472" y="156.833501" style="fill: #31688e; fill-opacity: 0.8; stroke: #31688e; stroke-opacity: 0.8"/>
     <use xlink:href="#m18b6b09d21" x="100.974104" y="110.174555" style="fill: #31688e; fill-opacity: 0.8; stroke: #31688e; stroke-opacity: 0.8"/>
     <use xlink:href="#m18b6b09d21" x="149.269867" y="134.100581" style="fill: #31688e; fill-opacity: 0.8; stroke: #31688e; stroke-opacity: 0.8"/>
     <use xlink:href="#m18b6b09d21" x="114.772894" y="127.962499" style="fill: #31688e; fill-opacity: 0.8; stroke: #31688e; stroke-opacity: 0.8"/>
    </g>
   </g>
   <g id="FillBetweenPolyCollection_2">
    <defs>
     <path id="m51b14b49c5" d="M 100.974104 -238.534791 
L 100.974104 -55.47833 
L 101.46194 -57.085708 
L 101.949776 -58.693086 
L 102.437612 -60.300464 
L 102.925448 -61.907843 
L 103.413284 -63.515221 
L 103.90112 -65.122599 
L 104.388956 -66.729977 
L 104.876792 -68.337355 
L 105.364628 -69.944733 
L 105.852464 -71.552111 
L 106.3403 -73.159489 
L 106.828136 -74.766868 
L 107.315972 -76.374246 
L 107.803808 -77.981624 
L 108.291644 -79.589002 
L 108.77948 -81.19638 
L 109.267316 -82.803758 
L 109.755152 -84.411136 
L 110.242988 -86.018514 
L 110.730824 -87.625893 
L 111.21866 -89.233271 
L 111.706496 -90.840649 
L 112.194332 -92.448027 
L 112.682168 -94.055405 
L 113.170004 -95.662783 
L 113.65784 -97.270161 
L 114.145676 -98.877539 
L 114.633512 -100.484918 
L 115.121348 -102.092296 
L 115.609184 -103.699674 
L 116.09702 -105.307052 
L 116.584856 -106.91443 
L 117.072692 -108.521808 
L 117.560528 -110.129186 
L 118.048364 -111.736564 
L 118.5362 -113.343943 
L 119.024036 -114.951321 
L 119.511872 -116.558699 
L 119.999708 -118.166077 
L 120.487544 -119.773455 
L 120.97538 -121.380833 
L 121.463216 -122.988211 
L 121.951052 -124.595589 
L 122.438888 -126.202968 
L 122.926724 -127.810346 
L 123.41456 -129.417724 
L 123.902396 -131.025102 
L 124.390232 -132.63248 
L 124.878068 -134.239858 
L 125.365903 -135.847236 
L 125.853739 -137.454614 
L 126.341575 -139.061993 
L 126.829411 -140.669371 
L 127.317247 -142.276749 
L 127.805083 -143.884127 
L 128.292919 -145.491505 
L 128.780755 -147.098883 
L 129.268591 -148.706261 
L 129.756427 -150.313639 
L 130.244263 -151.921018 
L 130.732099 -153.528396 
L 131.219935 -155.135774 
L 131.707771 -156.743152 
L 132.195607 -158.35053 
L 132.683443 -159.957908 
L 133.171279 -161.565286 
L 133.659115 -163.172665 
L 134.146951 -164.780043 
L 134.634787 -166.387421 
L 135.122623 -167.994799 
L 135.610459 -169.602177 
L 136.098295 -171.209555 
L 136.586131 -172.816933 
L 137.073967 -174.424311 
L 137.561803 -176.03169 
L 138.049639 -177.639068 
L 138.537475 -179.246446 
L 139.025311 -180.853824 
L 139.513147 -182.461202 
L 140.000983 -184.06858 
L 140.488819 -185.675958 
L 140.976655 -186.967721 
L 141.464491 -186.338854 
L 141.952327 -185.709987 
L 142.440163 -185.08112 
L 142.927999 -184.452254 
L 143.415835 -183.823387 
L 143.903671 -183.19452 
L 144.391507 -182.565654 
L 144.879343 -181.936787 
L 145.367179 -181.30792 
L 145.855015 -180.679053 
L 146.342851 -180.050187 
L 146.830687 -179.42132 
L 147.318523 -178.792453 
L 147.806359 -178.163587 
L 148.294195 -177.53472 
L 148.782031 -176.905853 
L 149.269867 -176.276986 
L 149.269867 -214.608765 
L 149.269867 -214.608765 
L 148.782031 -214.850442 
L 148.294195 -215.092119 
L 147.806359 -215.333796 
L 147.318523 -215.575473 
L 146.830687 -215.81715 
L 146.342851 -216.058827 
L 145.855015 -216.300504 
L 145.367179 -216.542181 
L 144.879343 -216.783858 
L 144.391507 -217.025535 
L 143.903671 -217.267212 
L 143.415835 -217.508889 
L 142.927999 -217.750566 
L 142.440163 -217.992243 
L 141.952327 -218.23392 
L 141.464491 -218.475597 
L 140.976655 -218.717274 
L 140.488819 -218.958951 
L 140.000983 -219.200628 
L 139.513147 -219.442305 
L 139.025311 -219.683982 
L 138.537475 -219.925659 
L 138.049639 -220.167336 
L 137.561803 -220.409013 
L 137.073967 -220.65069 
L 136.586131 -220.892367 
L 136.098295 -221.134044 
L 135.610459 -221.375721 
L 135.122623 -221.617399 
L 134.634787 -221.859076 
L 134.146951 -222.100753 
L 133.659115 -222.34243 
L 133.171279 -222.584107 
L 132.683443 -222.825784 
L 132.195607 -223.067461 
L 131.707771 -223.309138 
L 131.219935 -223.550815 
L 130.732099 -223.792492 
L 130.244263 -224.034169 
L 129.756427 -224.275846 
L 129.268591 -224.517523 
L 128.780755 -224.7592 
L 128.292919 -225.000877 
L 127.805083 -225.242554 
L 127.317247 -225.484231 
L 126.829411 -225.725908 
L 126.341575 -225.967585 
L 125.853739 -226.209262 
L 125.365903 -226.450939 
L 124.878068 -226.692616 
L 124.390232 -226.934293 
L 123.902396 -227.17597 
L 123.41456 -227.417647 
L 122.926724 -227.659324 
L 122.438888 -227.901001 
L 121.951052 -228.142678 
L 121.463216 -228.384355 
L 120.97538 -228.626033 
L 120.487544 -228.86771 
L 119.999708 -229.109387 
L 119.511872 -229.351064 
L 119.024036 -229.592741 
L 118.5362 -229.834418 
L 118.048364 -230.076095 
L 117.560528 -230.317772 
L 117.072692 -230.559449 
L 116.584856 -230.801126 
L 116.09702 -231.042803 
L 115.609184 -231.28448 
L 115.121348 -231.526157 
L 114.633512 -231.767834 
L 114.145676 -232.009511 
L 113.65784 -232.251188 
L 113.170004 -232.492865 
L 112.682168 -232.734542 
L 112.194332 -232.976219 
L 111.706496 -233.217896 
L 111.21866 -233.459573 
L 110.730824 -233.70125 
L 110.242988 -233.942927 
L 109.755152 -234.184604 
L 109.267316 -234.426281 
L 108.77948 -234.667958 
L 108.291644 -234.909635 
L 107.803808 -235.151312 
L 107.315972 -235.392989 
L 106.828136 -235.634667 
L 106.3403 -235.876344 
L 105.852464 -236.118021 
L 105.364628 -236.359698 
L 104.876792 -236.601375 
L 104.388956 -236.843052 
L 103.90112 -237.084729 
L 103.413284 -237.326406 
L 102.925448 -237.568083 
L 102.437612 -237.80976 
L 101.949776 -238.051437 
L 101.46194 -238.293114 
L 100.974104 -238.534791 
z
" style="stroke: #ffffff; stroke-opacity: 0.15"/>
    </defs>
    <g clip-path="url(#p40ec05e264)">
     <use xlink:href="#m51b14b49c5" x="0" y="348.709346" style="fill: #31688e; fill-opacity: 0.15; stroke: #ffffff; stroke-opacity: 0.15"/>
    </g>
   </g>
   <g id="PathCollection_3">
    <defs>
     <path id="m321588520f" d="M 0 3 
C 0.795609 3 1.55874 2.683901 2.12132 2.12132 
C 2.683901 1.55874 3 0.795609 3 0 
C 3 -0.795609 2.683901 -1.55874 2.12132 -2.12132 
C 1.55874 -2.683901 0.795609 -3 0 -3 
C -0.795609 -3 -1.55874 -2.683901 -2.12132 -2.12132 
C -2.683901 -1.55874 -3 -0.795609 -3 0 
C -3 0.795609 -2.683901 1.55874 -2.12132 2.12132 
C -1.55874 2.683901 -0.795609 3 0 3 
z
" style="stroke: #21918c; stroke-opacity: 0.8"/>
    </defs>
    <g clip-path="url(#p40ec05e264)">
     <use xlink:href="#m321588520f" x="66.477131" y="130.964145" style="fill: #21918c; fill-opacity: 0.8; stroke: #21918c; stroke-opacity: 0.8"/>
     <use xlink:href="#m321588520f" x="128.571683" y="134.008614" style="fill: #21918c; fill-opacity: 0.8; stroke: #21918c; stroke-opacity: 0.8"/>
     <use xlink:href="#m321588520f" x="197.565629" y="115.460339" style="fill: #21918c; fill-opacity: 0.8; stroke: #21918c; stroke-opacity: 0.8"/>
     <use xlink:href="#m321588520f" x="121.672288" y="85.809477" style="fill: #21918c; fill-opacity: 0.8; stroke: #21918c; stroke-opacity: 0.8"/>
     <use xlink:href="#m321588520f" x="94.07471" y="132.284983" style="fill: #21918c; fill-opacity: 0.8; stroke: #21918c; stroke-opacity: 0.8"/>
    </g>
   </g>
   <g id="FillBetweenPolyCollection_3">
    <defs>
     <path id="m5b78973da9" d="M 66.477131 -268.254694 
L 66.477131 -198.826519 
L 67.801257 -199.868795 
L 69.125384 -200.911071 
L 70.44951 -201.953347 
L 71.773636 -202.995623 
L 73.097762 -204.037899 
L 74.421889 -205.080175 
L 75.746015 -206.12245 
L 77.070141 -207.164726 
L 78.394267 -207.959709 
L 79.718394 -208.210151 
L 81.04252 -208.460594 
L 82.366646 -208.711037 
L 83.690772 -208.96148 
L 85.014898 -209.211923 
L 86.339025 -209.462366 
L 87.663151 -209.712808 
L 88.987277 -209.963251 
L 90.311403 -210.213694 
L 91.63553 -211.053524 
L 92.959656 -211.315692 
L 94.283782 -211.577861 
L 95.607908 -211.84003 
L 96.932035 -212.102199 
L 98.256161 -212.364368 
L 99.580287 -212.626537 
L 100.904413 -212.888706 
L 102.22854 -213.150874 
L 103.552666 -213.413043 
L 104.876792 -213.675212 
L 106.200918 -213.937381 
L 107.525045 -214.19955 
L 108.849171 -214.461719 
L 110.173297 -214.723888 
L 111.497423 -214.986056 
L 112.82155 -215.248225 
L 114.145676 -215.408033 
L 115.469802 -215.343112 
L 116.793928 -215.27819 
L 118.118055 -215.218356 
L 119.442181 -215.153231 
L 120.766307 -215.088105 
L 122.090433 -215.02298 
L 123.41456 -214.957855 
L 124.738686 -214.892247 
L 126.062812 -214.826087 
L 127.386938 -214.759928 
L 128.711065 -214.693898 
L 130.035191 -214.628977 
L 131.359317 -214.564056 
L 132.683443 -214.499134 
L 134.00757 -214.434213 
L 135.331696 -214.369292 
L 136.655822 -214.30437 
L 137.979948 -214.239449 
L 139.304074 -214.174528 
L 140.628201 -214.109606 
L 141.952327 -214.044685 
L 143.276453 -213.979764 
L 144.600579 -213.914842 
L 145.924706 -213.849921 
L 147.248832 -213.785 
L 148.572958 -213.720078 
L 149.897084 -213.655157 
L 151.221211 -213.590225 
L 152.545337 -213.5251 
L 153.869463 -213.459974 
L 155.193589 -213.394849 
L 156.517716 -213.329724 
L 157.841842 -213.264599 
L 159.165968 -213.199473 
L 160.490094 -213.134348 
L 161.814221 -213.069223 
L 163.138347 -213.004098 
L 164.462473 -212.938972 
L 165.786599 -212.873847 
L 167.110726 -212.808722 
L 168.434852 -212.743597 
L 169.758978 -212.678471 
L 171.083104 -212.613346 
L 172.407231 -212.548221 
L 173.731357 -212.483096 
L 175.055483 -212.417971 
L 176.379609 -212.352845 
L 177.703736 -212.28772 
L 179.027862 -212.222595 
L 180.351988 -212.15747 
L 181.676114 -212.092344 
L 183.000241 -212.027219 
L 184.324367 -211.962094 
L 185.648493 -211.896969 
L 186.972619 -211.831843 
L 188.296746 -211.766718 
L 189.620872 -211.701593 
L 190.944998 -211.636468 
L 192.269124 -211.571342 
L 193.59325 -211.506217 
L 194.917377 -211.441092 
L 196.241503 -211.375967 
L 197.565629 -211.310841 
L 197.565629 -327.548056 
L 197.565629 -327.548056 
L 196.241503 -326.300996 
L 194.917377 -325.053936 
L 193.59325 -323.806876 
L 192.269124 -322.559815 
L 190.944998 -321.312755 
L 189.620872 -320.065695 
L 188.296746 -318.818635 
L 186.972619 -317.571575 
L 185.648493 -316.324515 
L 184.324367 -315.077455 
L 183.000241 -313.830394 
L 181.676114 -312.583334 
L 180.351988 -311.336274 
L 179.027862 -310.089214 
L 177.703736 -308.842154 
L 176.379609 -307.655443 
L 175.055483 -306.572187 
L 173.731357 -305.488931 
L 172.407231 -304.405675 
L 171.083104 -303.322419 
L 169.758978 -302.239163 
L 168.434852 -301.155907 
L 167.110726 -300.072651 
L 165.786599 -298.989395 
L 164.462473 -297.906139 
L 163.138347 -296.822883 
L 161.814221 -295.739628 
L 160.490094 -294.656372 
L 159.165968 -293.573116 
L 157.841842 -292.48986 
L 156.517716 -291.406604 
L 155.193589 -290.323348 
L 153.869463 -289.240092 
L 152.545337 -288.156836 
L 151.221211 -287.07358 
L 149.897084 -285.990324 
L 148.572958 -284.907068 
L 147.248832 -283.823812 
L 145.924706 -282.740556 
L 144.600579 -281.657301 
L 143.276453 -280.574045 
L 141.952327 -279.490789 
L 140.628201 -278.407533 
L 139.304074 -277.324277 
L 137.979948 -276.241021 
L 136.655822 -275.157765 
L 135.331696 -274.074509 
L 134.00757 -272.991253 
L 132.683443 -271.907997 
L 131.359317 -270.824741 
L 130.035191 -269.741485 
L 128.711065 -268.658229 
L 127.386938 -267.574974 
L 126.062812 -266.491718 
L 124.738686 -265.408462 
L 123.41456 -264.325206 
L 122.090433 -263.24195 
L 120.766307 -262.158694 
L 119.442181 -261.075438 
L 118.118055 -259.992182 
L 116.793928 -258.908926 
L 115.469802 -257.82567 
L 114.145676 -256.742414 
L 112.82155 -255.659158 
L 111.497423 -255.12587 
L 110.173297 -255.512012 
L 108.849171 -255.898154 
L 107.525045 -256.284296 
L 106.200918 -256.670438 
L 104.876792 -257.05658 
L 103.552666 -257.442722 
L 102.22854 -257.828864 
L 100.904413 -258.215006 
L 99.580287 -258.601147 
L 98.256161 -258.987289 
L 96.932035 -259.373431 
L 95.607908 -259.759573 
L 94.283782 -260.145715 
L 92.959656 -260.531857 
L 91.63553 -260.917999 
L 90.311403 -261.304141 
L 88.987277 -261.690282 
L 87.663151 -262.076424 
L 86.339025 -262.462566 
L 85.014898 -262.848708 
L 83.690772 -263.23485 
L 82.366646 -263.620992 
L 81.04252 -264.007134 
L 79.718394 -264.393276 
L 78.394267 -264.779417 
L 77.070141 -265.165559 
L 75.746015 -265.551701 
L 74.421889 -265.937843 
L 73.097762 -266.323985 
L 71.773636 -266.710127 
L 70.44951 -267.096269 
L 69.125384 -267.482411 
L 67.801257 -267.868553 
L 66.477131 -268.254694 
z
" style="stroke: #ffffff; stroke-opacity: 0.15"/>
    </defs>
    <g clip-path="url(#p40ec05e264)">
     <use xlink:href="#m5b78973da9" x="0" y="348.709346" style="fill: #21918c; fill-opacity: 0.15; stroke: #ffffff; stroke-opacity: 0.15"/>
    </g>
   </g>
   <g id="PathCollection_4">
    <defs>
     <path id="me144954645" d="M 0 3 
C 0.795609 3 1.55874 2.683901 2.12132 2.12132 
C 2.683901 1.55874 3 0.795609 3 0 
C 3 -0.795609 2.683901 -1.55874 2.12132 -2.12132 
C 1.55874 -2.683901 0.795609 -3 0 -3 
C -0.795609 -3 -1.55874 -2.683901 -2.12132 -2.12132 
C -2.683901 -1.55874 -3 -0.795609 -3 0 
C -3 0.795609 -2.683901 1.55874 -2.12132 2.12132 
C -1.55874 2.683901 -0.795609 3 0 3 
z
" style="stroke: #35b779; stroke-opacity: 0.8"/>
    </defs>
    <g clip-path="url(#p40ec05e264)">
     <use xlink:href="#me144954645" x="94.07471" y="112.154457" style="fill: #35b779; fill-opacity: 0.8; stroke: #35b779; stroke-opacity: 0.8"/>
     <use xlink:href="#me144954645" x="135.471077" y="122.647238" style="fill: #35b779; fill-opacity: 0.8; stroke: #35b779; stroke-opacity: 0.8"/>
     <use xlink:href="#me144954645" x="328.654127" y="120.095709" style="fill: #35b779; fill-opacity: 0.8; stroke: #35b779; stroke-opacity: 0.8"/>
     <use xlink:href="#me144954645" x="114.772894" y="139.934611" style="fill: #35b779; fill-opacity: 0.8; stroke: #35b779; stroke-opacity: 0.8"/>
     <use xlink:href="#me144954645" x="273.45897" y="124.578052" style="fill: #35b779; fill-opacity: 0.8; stroke: #35b779; stroke-opacity: 0.8"/>
     <use xlink:href="#me144954645" x="107.873499" y="143.615969" style="fill: #35b779; fill-opacity: 0.8; stroke: #35b779; stroke-opacity: 0.8"/>
    </g>
   </g>
   <g id="FillBetweenPolyCollection_4">
    <defs>
     <path id="m57a2865e4f" d="M 94.07471 -235.335985 
L 94.07471 -203.97143 
L 96.444199 -204.232195 
L 98.813688 -204.49296 
L 101.183177 -204.753725 
L 103.552666 -205.01449 
L 105.922155 -205.275256 
L 108.291644 -205.35284 
L 110.661133 -206.154205 
L 113.030622 -206.371641 
L 115.400111 -206.360128 
L 117.7696 -206.612769 
L 120.139089 -206.865411 
L 122.508578 -207.118052 
L 124.878068 -207.370693 
L 127.247557 -207.626776 
L 129.617046 -207.887775 
L 131.986535 -208.148774 
L 134.356024 -208.409773 
L 136.725513 -208.670772 
L 139.095002 -208.930611 
L 141.464491 -209.13325 
L 143.83398 -208.944052 
L 146.203469 -208.316584 
L 148.572958 -207.712718 
L 150.942447 -206.84232 
L 153.311936 -206.018529 
L 155.681425 -205.287148 
L 158.050914 -204.555767 
L 160.420404 -203.824386 
L 162.789893 -203.093006 
L 165.159382 -202.361625 
L 167.528871 -201.630244 
L 169.89836 -200.898863 
L 172.267849 -200.167482 
L 174.637338 -199.436102 
L 177.006827 -198.704721 
L 179.376316 -197.97334 
L 181.745805 -197.241959 
L 184.115294 -196.510578 
L 186.484783 -195.779198 
L 188.854272 -195.047817 
L 191.223761 -194.316436 
L 193.59325 -193.585055 
L 195.96274 -192.853674 
L 198.332229 -192.122294 
L 200.701718 -191.390913 
L 203.071207 -190.659532 
L 205.440696 -189.928151 
L 207.810185 -189.196771 
L 210.179674 -188.46539 
L 212.549163 -187.734009 
L 214.918652 -187.002628 
L 217.288141 -186.271247 
L 219.65763 -185.539867 
L 222.027119 -184.808486 
L 224.396608 -184.077105 
L 226.766097 -183.345724 
L 229.135587 -182.614343 
L 231.505076 -181.882963 
L 233.874565 -181.151582 
L 236.244054 -180.420201 
L 238.613543 -179.68882 
L 240.983032 -178.95744 
L 243.352521 -178.226059 
L 245.72201 -177.494678 
L 248.091499 -176.763297 
L 250.460988 -176.031916 
L 252.830477 -175.300536 
L 255.199966 -174.569155 
L 257.569455 -173.837774 
L 259.938944 -173.106393 
L 262.308433 -172.375012 
L 264.677923 -171.643632 
L 267.047412 -170.912251 
L 269.416901 -170.18087 
L 271.78639 -169.449489 
L 274.155879 -168.718108 
L 276.525368 -167.986728 
L 278.894857 -167.255347 
L 281.264346 -166.523966 
L 283.633835 -165.792585 
L 286.003324 -165.061205 
L 288.372813 -164.329824 
L 290.742302 -163.598443 
L 293.111791 -162.867062 
L 295.48128 -162.135681 
L 297.850769 -161.404301 
L 300.220259 -160.67292 
L 302.589748 -159.941539 
L 304.959237 -159.210158 
L 307.328726 -158.478777 
L 309.698215 -157.747397 
L 312.067704 -157.016016 
L 314.437193 -156.284635 
L 316.806682 -155.553254 
L 319.176171 -154.821874 
L 321.54566 -154.090493 
L 323.915149 -153.359112 
L 326.284638 -152.627731 
L 328.654127 -151.89635 
L 328.654127 -233.035877 
L 328.654127 -233.035877 
L 326.284638 -232.903805 
L 323.915149 -232.771733 
L 321.54566 -232.63966 
L 319.176171 -232.507588 
L 316.806682 -232.339755 
L 314.437193 -232.104593 
L 312.067704 -231.869431 
L 309.698215 -231.634269 
L 307.328726 -231.399107 
L 304.959237 -231.163946 
L 302.589748 -230.928784 
L 300.220259 -230.693622 
L 297.850769 -230.45846 
L 295.48128 -230.223298 
L 293.111791 -229.988136 
L 290.742302 -229.897071 
L 288.372813 -229.977286 
L 286.003324 -230.057501 
L 283.633835 -230.137715 
L 281.264346 -230.21793 
L 278.894857 -230.263255 
L 276.525368 -230.13649 
L 274.155879 -230.009725 
L 271.78639 -229.88296 
L 269.416901 -229.756195 
L 267.047412 -229.720057 
L 264.677923 -229.786839 
L 262.308433 -229.853621 
L 259.938944 -229.920404 
L 257.569455 -229.987186 
L 255.199966 -230.05019 
L 252.830477 -230.110493 
L 250.460988 -230.182588 
L 248.091499 -230.262286 
L 245.72201 -230.328763 
L 243.352521 -230.406861 
L 240.983032 -230.484959 
L 238.613543 -230.563057 
L 236.244054 -230.641155 
L 233.874565 -230.719254 
L 231.505076 -230.797352 
L 229.135587 -230.87545 
L 226.766097 -230.953548 
L 224.396608 -231.031646 
L 222.027119 -231.109745 
L 219.65763 -231.187843 
L 217.288141 -231.265941 
L 214.918652 -231.344039 
L 212.549163 -231.422137 
L 210.179674 -231.500236 
L 207.810185 -231.578334 
L 205.440696 -231.656432 
L 203.071207 -231.60981 
L 200.701718 -231.439824 
L 198.332229 -231.547312 
L 195.96274 -231.6548 
L 193.59325 -231.754719 
L 191.223761 -231.822209 
L 188.854272 -231.889699 
L 186.484783 -231.95719 
L 184.115294 -232.02468 
L 181.745805 -232.09217 
L 179.376316 -232.159661 
L 177.006827 -232.227151 
L 174.637338 -232.294641 
L 172.267849 -232.362132 
L 169.89836 -232.428918 
L 167.528871 -232.524789 
L 165.159382 -232.625134 
L 162.789893 -232.725479 
L 160.420404 -232.825824 
L 158.050914 -232.42255 
L 155.681425 -232.545212 
L 153.311936 -232.667873 
L 150.942447 -232.790534 
L 148.572958 -232.913195 
L 146.203469 -233.035856 
L 143.83398 -232.464339 
L 141.464491 -232.480266 
L 139.095002 -232.57494 
L 136.725513 -232.669613 
L 134.356024 -232.763327 
L 131.986535 -232.856446 
L 129.617046 -232.937896 
L 127.247557 -232.994093 
L 124.878068 -233.052483 
L 122.508578 -233.109627 
L 120.139089 -233.16677 
L 117.7696 -233.223914 
L 115.400111 -233.281058 
L 113.030622 -233.338202 
L 110.661133 -233.395345 
L 108.291644 -233.486991 
L 105.922155 -233.626339 
L 103.552666 -234.080152 
L 101.183177 -234.175345 
L 98.813688 -234.270538 
L 96.444199 -234.365731 
L 94.07471 -235.335985 
z
" style="stroke: #ffffff; stroke-opacity: 0.15"/>
    </defs>
    <g clip-path="url(#p40ec05e264)">
     <use xlink:href="#m57a2865e4f" x="0" y="348.709346" style="fill: #35b779; fill-opacity: 0.15; stroke: #ffffff; stroke-opacity: 0.15"/>
    </g>
   </g>
   <g id="PathCollection_5">
    <defs>
     <path id="m9033b22ea3" d="M 0 3 
C 0.795609 3 1.55874 2.683901 2.12132 2.12132 
C 2.683901 1.55874 3 0.795609 3 0 
C 3 -0.795609 2.683901 -1.55874 2.12132 -2.12132 
C 1.55874 -2.683901 0.795609 -3 0 -3 
C -0.795609 -3 -1.55874 -2.683901 -2.12132 -2.12132 
C -2.683901 -1.55874 -3 -0.795609 -3 0 
C -3 0.795609 -2.683901 1.55874 -2.12132 2.12132 
C -1.55874 2.683901 -0.795609 3 0 3 
z
" style="stroke: #90d743; stroke-opacity: 0.8"/>
    </defs>
    <g clip-path="url(#p40ec05e264)">
     <use xlink:href="#m9033b22ea3" x="135.471077" y="147.526914" style="fill: #90d743; fill-opacity: 0.8; stroke: #90d743; stroke-opacity: 0.8"/>
     <use xlink:href="#m9033b22ea3" x="121.672288" y="135.715507" style="fill: #90d743; fill-opacity: 0.8; stroke: #90d743; stroke-opacity: 0.8"/>
     <use xlink:href="#m9033b22ea3" x="107.873499" y="135.125094" style="fill: #90d743; fill-opacity: 0.8; stroke: #90d743; stroke-opacity: 0.8"/>
     <use xlink:href="#m9033b22ea3" x="114.772894" y="118.535922" style="fill: #90d743; fill-opacity: 0.8; stroke: #90d743; stroke-opacity: 0.8"/>
     <use xlink:href="#m9033b22ea3" x="107.873499" y="133.566955" style="fill: #90d743; fill-opacity: 0.8; stroke: #90d743; stroke-opacity: 0.8"/>
     <use xlink:href="#m9033b22ea3" x="87.175315" y="126.939331" style="fill: #90d743; fill-opacity: 0.8; stroke: #90d743; stroke-opacity: 0.8"/>
     <use xlink:href="#m9033b22ea3" x="176.867445" y="118.609742" style="fill: #90d743; fill-opacity: 0.8; stroke: #90d743; stroke-opacity: 0.8"/>
    </g>
   </g>
   <g id="FillBetweenPolyCollection_5">
    <defs>
     <path id="md9e2987a54" d="M 87.175315 -233.749311 
L 87.175315 -204.013902 
L 88.081296 -204.256035 
L 88.987277 -204.498168 
L 89.893258 -204.740302 
L 90.799239 -204.982435 
L 91.705221 -205.224568 
L 92.611202 -205.466701 
L 93.517183 -205.708834 
L 94.423164 -205.950967 
L 95.329145 -206.1931 
L 96.235126 -206.435 
L 97.141107 -206.675177 
L 98.047088 -206.915354 
L 98.953069 -207.155532 
L 99.859051 -207.395709 
L 100.765032 -207.635886 
L 101.671013 -207.867523 
L 102.576994 -207.979859 
L 103.482975 -208.093875 
L 104.388956 -208.207978 
L 105.294937 -208.322081 
L 106.200918 -208.508036 
L 107.106899 -208.742616 
L 108.012881 -208.977197 
L 108.918862 -209.211777 
L 109.824843 -209.385304 
L 110.730824 -209.523468 
L 111.636805 -209.672957 
L 112.542786 -209.822447 
L 113.448767 -209.971936 
L 114.354748 -210.12391 
L 115.26073 -210.143741 
L 116.166711 -209.959803 
L 117.072692 -209.738344 
L 117.978673 -209.367439 
L 118.884654 -209.221933 
L 119.790635 -208.845937 
L 120.696616 -208.559856 
L 121.602597 -208.273757 
L 122.508578 -207.945738 
L 123.41456 -207.649059 
L 124.320541 -207.258152 
L 125.226522 -206.85696 
L 126.132503 -206.455774 
L 127.038484 -206.016121 
L 127.944465 -205.620207 
L 128.850446 -205.242113 
L 129.756427 -204.863749 
L 130.662408 -204.481732 
L 131.56839 -204.067404 
L 132.474371 -203.64891 
L 133.380352 -203.226158 
L 134.286333 -202.823682 
L 135.192314 -202.316322 
L 136.098295 -201.936478 
L 137.004276 -201.430516 
L 137.910257 -200.997429 
L 138.816238 -200.509504 
L 139.72222 -199.941963 
L 140.628201 -199.405857 
L 141.534182 -199.001501 
L 142.440163 -198.556578 
L 143.346144 -198.156176 
L 144.252125 -197.755134 
L 145.158106 -197.271896 
L 146.064087 -196.750524 
L 146.970069 -196.30583 
L 147.87605 -195.862844 
L 148.782031 -195.424152 
L 149.688012 -194.900125 
L 150.593993 -194.357869 
L 151.499974 -193.879135 
L 152.405955 -193.36029 
L 153.311936 -192.839202 
L 154.217917 -192.318113 
L 155.123899 -191.797025 
L 156.02988 -191.275872 
L 156.935861 -190.754147 
L 157.841842 -190.284558 
L 158.747823 -189.787636 
L 159.653804 -189.290714 
L 160.559785 -188.781455 
L 161.465766 -188.21849 
L 162.371747 -187.655524 
L 163.277729 -187.102076 
L 164.18371 -186.580352 
L 165.089691 -186.058627 
L 165.995672 -185.536903 
L 166.901653 -185.015178 
L 167.807634 -184.493454 
L 168.713615 -183.971729 
L 169.619596 -183.450005 
L 170.525577 -182.92828 
L 171.431559 -182.406556 
L 172.33754 -181.884831 
L 173.243521 -181.363107 
L 174.149502 -180.841383 
L 175.055483 -180.319658 
L 175.961464 -179.797934 
L 176.867445 -179.276209 
L 176.867445 -231.006662 
L 176.867445 -231.006662 
L 175.961464 -230.912442 
L 175.055483 -230.830051 
L 174.149502 -230.726483 
L 173.243521 -230.534526 
L 172.33754 -230.345563 
L 171.431559 -230.217784 
L 170.525577 -230.131229 
L 169.619596 -230.044673 
L 168.713615 -229.958118 
L 167.807634 -229.871312 
L 166.901653 -229.784094 
L 165.995672 -229.696534 
L 165.089691 -229.607023 
L 164.18371 -229.517378 
L 163.277729 -229.427733 
L 162.371747 -229.297028 
L 161.465766 -229.118988 
L 160.559785 -228.968802 
L 159.653804 -228.819568 
L 158.747823 -228.732927 
L 157.841842 -228.646286 
L 156.935861 -228.559645 
L 156.02988 -228.472458 
L 155.123899 -228.384775 
L 154.217917 -228.296588 
L 153.311936 -228.204712 
L 152.405955 -228.115156 
L 151.499974 -228.027465 
L 150.593993 -227.940181 
L 149.688012 -227.853112 
L 148.782031 -227.766044 
L 147.87605 -227.678975 
L 146.970069 -227.591907 
L 146.064087 -227.504838 
L 145.158106 -227.41777 
L 144.252125 -227.330702 
L 143.346144 -227.242635 
L 142.440163 -227.154315 
L 141.534182 -227.065996 
L 140.628201 -226.977676 
L 139.72222 -226.889356 
L 138.816238 -226.801037 
L 137.910257 -226.712717 
L 137.004276 -226.624418 
L 136.098295 -226.536727 
L 135.192314 -226.449037 
L 134.286333 -226.361346 
L 133.380352 -226.273656 
L 132.474371 -226.185965 
L 131.56839 -226.098275 
L 130.662408 -226.010584 
L 129.756427 -225.904128 
L 128.850446 -225.794818 
L 127.944465 -225.685507 
L 127.038484 -225.572586 
L 126.132503 -225.409862 
L 125.226522 -225.334401 
L 124.320541 -225.244828 
L 123.41456 -225.162379 
L 122.508578 -225.123669 
L 121.602597 -225.085531 
L 120.696616 -224.961829 
L 119.790635 -224.888151 
L 118.884654 -224.81331 
L 117.978673 -224.782917 
L 117.072692 -224.695227 
L 116.166711 -224.614715 
L 115.26073 -224.520796 
L 114.354748 -224.440589 
L 113.448767 -224.344465 
L 112.542786 -224.256774 
L 111.636805 -224.216744 
L 110.730824 -224.185488 
L 109.824843 -224.271504 
L 108.918862 -224.421664 
L 108.012881 -224.319149 
L 107.106899 -224.377419 
L 106.200918 -224.486244 
L 105.294937 -224.836848 
L 104.388956 -225.009896 
L 103.482975 -225.123971 
L 102.576994 -225.441882 
L 101.671013 -225.817372 
L 100.765032 -226.013465 
L 99.859051 -226.109901 
L 98.953069 -226.616588 
L 98.047088 -227.161524 
L 97.141107 -227.706463 
L 96.235126 -228.255659 
L 95.329145 -228.804856 
L 94.423164 -229.354052 
L 93.517183 -229.903249 
L 92.611202 -230.452445 
L 91.705221 -231.001642 
L 90.799239 -231.550839 
L 89.893258 -232.101506 
L 88.987277 -232.649818 
L 88.081296 -233.199565 
L 87.175315 -233.749311 
z
" style="stroke: #ffffff; stroke-opacity: 0.15"/>
    </defs>
    <g clip-path="url(#p40ec05e264)">
     <use xlink:href="#md9e2987a54" x="0" y="348.709346" style="fill: #90d743; fill-opacity: 0.15; stroke: #ffffff; stroke-opacity: 0.15"/>
    </g>
   </g>
   <g id="line2d_13">
    <path d="M 149.269867 107.989737 
L 149.757703 108.237924 
L 150.245539 108.486111 
L 150.733375 108.734299 
L 151.221211 108.982486 
L 151.709047 109.230673 
L 152.196883 109.47886 
L 152.684719 109.727047 
L 153.172555 109.975234 
L 153.660391 110.223421 
L 154.148227 110.471608 
L 154.636063 110.719796 
L 155.123899 110.967983 
L 155.611735 111.21617 
L 156.099571 111.464357 
L 156.587407 111.712544 
L 157.075242 111.960731 
L 157.563078 112.208918 
L 158.050914 112.457106 
L 158.53875 112.705293 
L 159.026586 112.95348 
L 159.514422 113.201667 
L 160.002258 113.449854 
L 160.490094 113.698041 
L 160.97793 113.946228 
L 161.465766 114.194415 
L 161.953602 114.442603 
L 162.441438 114.69079 
L 162.929274 114.938977 
L 163.41711 115.187164 
L 163.904946 115.435351 
L 164.392782 115.683538 
L 164.880618 115.931725 
L 165.368454 116.179912 
L 165.85629 116.4281 
L 166.344126 116.676287 
L 166.831962 116.924474 
L 167.319798 117.172661 
L 167.807634 117.420848 
L 168.29547 117.669035 
L 168.783306 117.917222 
L 169.271142 118.165409 
L 169.758978 118.413597 
L 170.246814 118.661784 
L 170.73465 118.909971 
L 171.222486 119.158158 
L 171.710322 119.406345 
L 172.198158 119.654532 
L 172.685994 119.902719 
L 173.17383 120.150906 
L 173.661666 120.399094 
L 174.149502 120.647281 
L 174.637338 120.895468 
L 175.125174 121.143655 
L 175.61301 121.391842 
L 176.100846 121.640029 
L 176.588682 121.888216 
L 177.076518 122.136403 
L 177.564354 122.384591 
L 178.05219 122.632778 
L 178.540026 122.880965 
L 179.027862 123.129152 
L 179.515698 123.377339 
L 180.003534 123.625526 
L 180.49137 123.873713 
L 180.979206 124.1219 
L 181.467042 124.370088 
L 181.954878 124.618275 
L 182.442714 124.866462 
L 182.93055 125.114649 
L 183.418386 125.362836 
L 183.906222 125.611023 
L 184.394058 125.85921 
L 184.881894 126.107397 
L 185.36973 126.355585 
L 185.857566 126.603772 
L 186.345402 126.851959 
L 186.833238 127.100146 
L 187.321074 127.348333 
L 187.80891 127.59652 
L 188.296746 127.844707 
L 188.784581 128.092894 
L 189.272417 128.341082 
L 189.760253 128.589269 
L 190.248089 128.837456 
L 190.735925 129.085643 
L 191.223761 129.33383 
L 191.711597 129.582017 
L 192.199433 129.830204 
L 192.687269 130.078391 
L 193.175105 130.326579 
L 193.662941 130.574766 
L 194.150777 130.822953 
L 194.638613 131.07114 
L 195.126449 131.319327 
L 195.614285 131.567514 
L 196.102121 131.815701 
L 196.589957 132.063888 
L 197.077793 132.312076 
L 197.565629 132.560263 
" clip-path="url(#p40ec05e264)" style="fill: none; stroke: #443983; stroke-width: 2.25; stroke-linecap: round"/>
   </g>
   <g id="line2d_14">
    <path d="M 100.974104 114.907481 
L 101.46194 115.234814 
L 101.949776 115.562146 
L 102.437612 115.889478 
L 102.925448 116.21681 
L 103.413284 116.544143 
L 103.90112 116.871475 
L 104.388956 117.198807 
L 104.876792 117.52614 
L 105.364628 117.853472 
L 105.852464 118.180804 
L 106.3403 118.508137 
L 106.828136 118.835469 
L 107.315972 119.162801 
L 107.803808 119.490134 
L 108.291644 119.817466 
L 108.77948 120.144798 
L 109.267316 120.47213 
L 109.755152 120.799463 
L 110.242988 121.126795 
L 110.730824 121.454127 
L 111.21866 121.78146 
L 111.706496 122.108792 
L 112.194332 122.436124 
L 112.682168 122.763457 
L 113.170004 123.090789 
L 113.65784 123.418121 
L 114.145676 123.745454 
L 114.633512 124.072786 
L 115.121348 124.400118 
L 115.609184 124.72745 
L 116.09702 125.054783 
L 116.584856 125.382115 
L 117.072692 125.709447 
L 117.560528 126.03678 
L 118.048364 126.364112 
L 118.5362 126.691444 
L 119.024036 127.018777 
L 119.511872 127.346109 
L 119.999708 127.673441 
L 120.487544 128.000774 
L 120.97538 128.328106 
L 121.463216 128.655438 
L 121.951052 128.982771 
L 122.438888 129.310103 
L 122.926724 129.637435 
L 123.41456 129.964767 
L 123.902396 130.2921 
L 124.390232 130.619432 
L 124.878068 130.946764 
L 125.365903 131.274097 
L 125.853739 131.601429 
L 126.341575 131.928761 
L 126.829411 132.256094 
L 127.317247 132.583426 
L 127.805083 132.910758 
L 128.292919 133.238091 
L 128.780755 133.565423 
L 129.268591 133.892755 
L 129.756427 134.220087 
L 130.244263 134.54742 
L 130.732099 134.874752 
L 131.219935 135.202084 
L 131.707771 135.529417 
L 132.195607 135.856749 
L 132.683443 136.184081 
L 133.171279 136.511414 
L 133.659115 136.838746 
L 134.146951 137.166078 
L 134.634787 137.493411 
L 135.122623 137.820743 
L 135.610459 138.148075 
L 136.098295 138.475407 
L 136.586131 138.80274 
L 137.073967 139.130072 
L 137.561803 139.457404 
L 138.049639 139.784737 
L 138.537475 140.112069 
L 139.025311 140.439401 
L 139.513147 140.766734 
L 140.000983 141.094066 
L 140.488819 141.421398 
L 140.976655 141.748731 
L 141.464491 142.076063 
L 141.952327 142.403395 
L 142.440163 142.730727 
L 142.927999 143.05806 
L 143.415835 143.385392 
L 143.903671 143.712724 
L 144.391507 144.040057 
L 144.879343 144.367389 
L 145.367179 144.694721 
L 145.855015 145.022054 
L 146.342851 145.349386 
L 146.830687 145.676718 
L 147.318523 146.004051 
L 147.806359 146.331383 
L 148.294195 146.658715 
L 148.782031 146.986047 
L 149.269867 147.31338 
" clip-path="url(#p40ec05e264)" style="fill: none; stroke: #31688e; stroke-width: 2.25; stroke-linecap: round"/>
   </g>
   <g id="line2d_15">
    <path d="M 66.477131 126.548313 
L 67.801257 126.384155 
L 69.125384 126.219997 
L 70.44951 126.055839 
L 71.773636 125.891681 
L 73.097762 125.727523 
L 74.421889 125.563364 
L 75.746015 125.399206 
L 77.070141 125.235048 
L 78.394267 125.07089 
L 79.718394 124.906732 
L 81.04252 124.742574 
L 82.366646 124.578416 
L 83.690772 124.414258 
L 85.014898 124.2501 
L 86.339025 124.085941 
L 87.663151 123.921783 
L 88.987277 123.757625 
L 90.311403 123.593467 
L 91.63553 123.429309 
L 92.959656 123.265151 
L 94.283782 123.100993 
L 95.607908 122.936835 
L 96.932035 122.772676 
L 98.256161 122.608518 
L 99.580287 122.44436 
L 100.904413 122.280202 
L 102.22854 122.116044 
L 103.552666 121.951886 
L 104.876792 121.787728 
L 106.200918 121.62357 
L 107.525045 121.459411 
L 108.849171 121.295253 
L 110.173297 121.131095 
L 111.497423 120.966937 
L 112.82155 120.802779 
L 114.145676 120.638621 
L 115.469802 120.474463 
L 116.793928 120.310305 
L 118.118055 120.146147 
L 119.442181 119.981988 
L 120.766307 119.81783 
L 122.090433 119.653672 
L 123.41456 119.489514 
L 124.738686 119.325356 
L 126.062812 119.161198 
L 127.386938 118.99704 
L 128.711065 118.832882 
L 130.035191 118.668723 
L 131.359317 118.504565 
L 132.683443 118.340407 
L 134.00757 118.176249 
L 135.331696 118.012091 
L 136.655822 117.847933 
L 137.979948 117.683775 
L 139.304074 117.519617 
L 140.628201 117.355458 
L 141.952327 117.1913 
L 143.276453 117.027142 
L 144.600579 116.862984 
L 145.924706 116.698826 
L 147.248832 116.534668 
L 148.572958 116.37051 
L 149.897084 116.206352 
L 151.221211 116.042193 
L 152.545337 115.878035 
L 153.869463 115.713877 
L 155.193589 115.549719 
L 156.517716 115.385561 
L 157.841842 115.221403 
L 159.165968 115.057245 
L 160.490094 114.893087 
L 161.814221 114.728929 
L 163.138347 114.56477 
L 164.462473 114.400612 
L 165.786599 114.236454 
L 167.110726 114.072296 
L 168.434852 113.908138 
L 169.758978 113.74398 
L 171.083104 113.579822 
L 172.407231 113.415664 
L 173.731357 113.251505 
L 175.055483 113.087347 
L 176.379609 112.923189 
L 177.703736 112.759031 
L 179.027862 112.594873 
L 180.351988 112.430715 
L 181.676114 112.266557 
L 183.000241 112.102399 
L 184.324367 111.93824 
L 185.648493 111.774082 
L 186.972619 111.609924 
L 188.296746 111.445766 
L 189.620872 111.281608 
L 190.944998 111.11745 
L 192.269124 110.953292 
L 193.59325 110.789134 
L 194.917377 110.624976 
L 196.241503 110.460817 
L 197.565629 110.296659 
" clip-path="url(#p40ec05e264)" style="fill: none; stroke: #21918c; stroke-width: 2.25; stroke-linecap: round"/>
   </g>
   <g id="line2d_16">
    <path d="M 94.07471 130.171751 
L 96.444199 130.084661 
L 98.813688 129.997572 
L 101.183177 129.910482 
L 103.552666 129.823393 
L 105.922155 129.736303 
L 108.291644 129.649214 
L 110.661133 129.562124 
L 113.030622 129.475035 
L 115.400111 129.387945 
L 117.7696 129.300856 
L 120.139089 129.213766 
L 122.508578 129.126677 
L 124.878068 129.039587 
L 127.247557 128.952498 
L 129.617046 128.865409 
L 131.986535 128.778319 
L 134.356024 128.69123 
L 136.725513 128.60414 
L 139.095002 128.517051 
L 141.464491 128.429961 
L 143.83398 128.342872 
L 146.203469 128.255782 
L 148.572958 128.168693 
L 150.942447 128.081603 
L 153.311936 127.994514 
L 155.681425 127.907424 
L 158.050914 127.820335 
L 160.420404 127.733245 
L 162.789893 127.646156 
L 165.159382 127.559066 
L 167.528871 127.471977 
L 169.89836 127.384887 
L 172.267849 127.297798 
L 174.637338 127.210708 
L 177.006827 127.123619 
L 179.376316 127.03653 
L 181.745805 126.94944 
L 184.115294 126.862351 
L 186.484783 126.775261 
L 188.854272 126.688172 
L 191.223761 126.601082 
L 193.59325 126.513993 
L 195.96274 126.426903 
L 198.332229 126.339814 
L 200.701718 126.252724 
L 203.071207 126.165635 
L 205.440696 126.078545 
L 207.810185 125.991456 
L 210.179674 125.904366 
L 212.549163 125.817277 
L 214.918652 125.730187 
L 217.288141 125.643098 
L 219.65763 125.556008 
L 222.027119 125.468919 
L 224.396608 125.381829 
L 226.766097 125.29474 
L 229.135587 125.207651 
L 231.505076 125.120561 
L 233.874565 125.033472 
L 236.244054 124.946382 
L 238.613543 124.859293 
L 240.983032 124.772203 
L 243.352521 124.685114 
L 245.72201 124.598024 
L 248.091499 124.510935 
L 250.460988 124.423845 
L 252.830477 124.336756 
L 255.199966 124.249666 
L 257.569455 124.162577 
L 259.938944 124.075487 
L 262.308433 123.988398 
L 264.677923 123.901308 
L 267.047412 123.814219 
L 269.416901 123.727129 
L 271.78639 123.64004 
L 274.155879 123.55295 
L 276.525368 123.465861 
L 278.894857 123.378772 
L 281.264346 123.291682 
L 283.633835 123.204593 
L 286.003324 123.117503 
L 288.372813 123.030414 
L 290.742302 122.943324 
L 293.111791 122.856235 
L 295.48128 122.769145 
L 297.850769 122.682056 
L 300.220259 122.594966 
L 302.589748 122.507877 
L 304.959237 122.420787 
L 307.328726 122.333698 
L 309.698215 122.246608 
L 312.067704 122.159519 
L 314.437193 122.072429 
L 316.806682 121.98534 
L 319.176171 121.89825 
L 321.54566 121.811161 
L 323.915149 121.724071 
L 326.284638 121.636982 
L 328.654127 121.549892 
" clip-path="url(#p40ec05e264)" style="fill: none; stroke: #35b779; stroke-width: 2.25; stroke-linecap: round"/>
   </g>
   <g id="line2d_17">
    <path d="M 87.175315 133.1484 
L 88.081296 133.088298 
L 88.987277 133.028197 
L 89.893258 132.968096 
L 90.799239 132.907994 
L 91.705221 132.847893 
L 92.611202 132.787791 
L 93.517183 132.72769 
L 94.423164 132.667589 
L 95.329145 132.607487 
L 96.235126 132.547386 
L 97.141107 132.487285 
L 98.047088 132.427183 
L 98.953069 132.367082 
L 99.859051 132.30698 
L 100.765032 132.246879 
L 101.671013 132.186778 
L 102.576994 132.126676 
L 103.482975 132.066575 
L 104.388956 132.006473 
L 105.294937 131.946372 
L 106.200918 131.886271 
L 107.106899 131.826169 
L 108.012881 131.766068 
L 108.918862 131.705966 
L 109.824843 131.645865 
L 110.730824 131.585764 
L 111.636805 131.525662 
L 112.542786 131.465561 
L 113.448767 131.405459 
L 114.354748 131.345358 
L 115.26073 131.285257 
L 116.166711 131.225155 
L 117.072692 131.165054 
L 117.978673 131.104952 
L 118.884654 131.044851 
L 119.790635 130.98475 
L 120.696616 130.924648 
L 121.602597 130.864547 
L 122.508578 130.804446 
L 123.41456 130.744344 
L 124.320541 130.684243 
L 125.226522 130.624141 
L 126.132503 130.56404 
L 127.038484 130.503939 
L 127.944465 130.443837 
L 128.850446 130.383736 
L 129.756427 130.323634 
L 130.662408 130.263533 
L 131.56839 130.203432 
L 132.474371 130.14333 
L 133.380352 130.083229 
L 134.286333 130.023127 
L 135.192314 129.963026 
L 136.098295 129.902925 
L 137.004276 129.842823 
L 137.910257 129.782722 
L 138.816238 129.72262 
L 139.72222 129.662519 
L 140.628201 129.602418 
L 141.534182 129.542316 
L 142.440163 129.482215 
L 143.346144 129.422113 
L 144.252125 129.362012 
L 145.158106 129.301911 
L 146.064087 129.241809 
L 146.970069 129.181708 
L 147.87605 129.121607 
L 148.782031 129.061505 
L 149.688012 129.001404 
L 150.593993 128.941302 
L 151.499974 128.881201 
L 152.405955 128.8211 
L 153.311936 128.760998 
L 154.217917 128.700897 
L 155.123899 128.640795 
L 156.02988 128.580694 
L 156.935861 128.520593 
L 157.841842 128.460491 
L 158.747823 128.40039 
L 159.653804 128.340288 
L 160.559785 128.280187 
L 161.465766 128.220086 
L 162.371747 128.159984 
L 163.277729 128.099883 
L 164.18371 128.039781 
L 165.089691 127.97968 
L 165.995672 127.919579 
L 166.901653 127.859477 
L 167.807634 127.799376 
L 168.713615 127.739274 
L 169.619596 127.679173 
L 170.525577 127.619072 
L 171.431559 127.55897 
L 172.33754 127.498869 
L 173.243521 127.438768 
L 174.149502 127.378666 
L 175.055483 127.318565 
L 175.961464 127.258463 
L 176.867445 127.198362 
" clip-path="url(#p40ec05e264)" style="fill: none; stroke: #90d743; stroke-width: 2.25; stroke-linecap: round"/>
   </g>
   <g id="patch_3">
    <path d="M 53.368281 306.834502 
L 53.368281 7.557804 
" style="fill: none; stroke: #cccccc; stroke-width: 1.25; stroke-linejoin: miter; stroke-linecap: square"/>
   </g>
   <g id="patch_4">
    <path d="M 53.368281 306.834502 
L 341.762977 306.834502 
" style="fill: none; stroke: #cccccc; stroke-width: 1.25; stroke-linejoin: miter; stroke-linecap: square"/>
   </g>
  </g>
  <g id="legend_1">
   <g id="text_15">
    <!-- seniority -->
    <g style="fill: #262626" transform="translate(346.547027 138.486939) scale(0.12 -0.12)">
     <defs>
      <path id="ArialMT-73" d="M 197 991 
L 753 1078 
Q 800 744 1014 566 
Q 1228 388 1613 388 
Q 2000 388 2187 545 
Q 2375 703 2375 916 
Q 2375 1106 2209 1216 
Q 2094 1291 1634 1406 
Q 1016 1563 777 1677 
Q 538 1791 414 1992 
Q 291 2194 291 2438 
Q 291 2659 392 2848 
Q 494 3038 669 3163 
Q 800 3259 1026 3326 
Q 1253 3394 1513 3394 
Q 1903 3394 2198 3281 
Q 2494 3169 2634 2976 
Q 2775 2784 2828 2463 
L 2278 2388 
Q 2241 2644 2061 2787 
Q 1881 2931 1553 2931 
Q 1166 2931 1000 2803 
Q 834 2675 834 2503 
Q 834 2394 903 2306 
Q 972 2216 1119 2156 
Q 1203 2125 1616 2013 
Q 2213 1853 2448 1751 
Q 2684 1650 2818 1456 
Q 2953 1263 2953 975 
Q 2953 694 2789 445 
Q 2625 197 2315 61 
Q 2006 -75 1616 -75 
Q 969 -75 630 194 
Q 291 463 197 991 
z
" transform="scale(0.015625)"/>
      <path id="ArialMT-74" d="M 1650 503 
L 1731 6 
Q 1494 -44 1306 -44 
Q 1000 -44 831 53 
Q 663 150 594 308 
Q 525 466 525 972 
L 525 2881 
L 113 2881 
L 113 3319 
L 525 3319 
L 525 4141 
L 1084 4478 
L 1084 3319 
L 1650 3319 
L 1650 2881 
L 1084 2881 
L 1084 941 
Q 1084 700 1114 631 
Q 1144 563 1211 522 
Q 1278 481 1403 481 
Q 1497 481 1650 503 
z
" transform="scale(0.015625)"/>
     </defs>
     <use xlink:href="#ArialMT-73"/>
     <use xlink:href="#ArialMT-65" transform="translate(50 0)"/>
     <use xlink:href="#ArialMT-6e" transform="translate(105.615234 0)"/>
     <use xlink:href="#ArialMT-69" transform="translate(161.230469 0)"/>
     <use xlink:href="#ArialMT-6f" transform="translate(183.447266 0)"/>
     <use xlink:href="#ArialMT-72" transform="translate(239.0625 0)"/>
     <use xlink:href="#ArialMT-69" transform="translate(272.363281 0)"/>
     <use xlink:href="#ArialMT-74" transform="translate(294.580078 0)"/>
     <use xlink:href="#ArialMT-79" transform="translate(322.363281 0)"/>
    </g>
   </g>
   <g id="PathCollection_6">
    <g>
     <use xlink:href="#m496ff2da8b" x="361.429137" y="151.498657" style="fill: #443983; fill-opacity: 0.8; stroke: #443983; stroke-opacity: 0.8"/>
    </g>
   </g>
   <g id="text_16">
    <!-- 0 -->
    <g style="fill: #262626" transform="translate(381.229137 154.386157) scale(0.11 -0.11)">
     <use xlink:href="#ArialMT-30"/>
    </g>
   </g>
   <g id="PathCollection_7">
    <g>
     <use xlink:href="#m18b6b09d21" x="361.429137" y="167.058501" style="fill: #31688e; fill-opacity: 0.8; stroke: #31688e; stroke-opacity: 0.8"/>
    </g>
   </g>
   <g id="text_17">
    <!-- 1 -->
    <g style="fill: #262626" transform="translate(381.229137 169.946001) scale(0.11 -0.11)">
     <use xlink:href="#ArialMT-31"/>
    </g>
   </g>
   <g id="PathCollection_8">
    <g>
     <use xlink:href="#m321588520f" x="361.429137" y="182.618345" style="fill: #21918c; fill-opacity: 0.8; stroke: #21918c; stroke-opacity: 0.8"/>
    </g>
   </g>
   <g id="text_18">
    <!-- 2 -->
    <g style="fill: #262626" transform="translate(381.229137 185.505845) scale(0.11 -0.11)">
     <use xlink:href="#ArialMT-32"/>
    </g>
   </g>
   <g id="PathCollection_9">
    <g>
     <use xlink:href="#me144954645" x="361.429137" y="198.178189" style="fill: #35b779; fill-opacity: 0.8; stroke: #35b779; stroke-opacity: 0.8"/>
    </g>
   </g>
   <g id="text_19">
    <!-- 3 -->
    <g style="fill: #262626" transform="translate(381.229137 201.065689) scale(0.11 -0.11)">
     <use xlink:href="#ArialMT-33"/>
    </g>
   </g>
   <g id="PathCollection_10">
    <g>
     <use xlink:href="#m9033b22ea3" x="361.429137" y="213.738032" style="fill: #90d743; fill-opacity: 0.8; stroke: #90d743; stroke-opacity: 0.8"/>
    </g>
   </g>
   <g id="text_20">
    <!-- 4 -->
    <g style="fill: #262626" transform="translate(381.229137 216.625532) scale(0.11 -0.11)">
     <use xlink:href="#ArialMT-34"/>
    </g>
   </g>
  </g>
 </g>
 <defs>
  <clipPath id="p40ec05e264">
   <rect x="53.368281" y="7.557804" width="288.394696" height="299.276698"/>
  </clipPath>
 </defs>
</svg>
